# xmcd
#
# Track frame offsets: 
#        150
#        15105
#        33785
#        48732
#        67872
#        91597
#        104963
#        119891
#        137008
#
# Disc length: 2002 seconds
#
# Revision: 0
# Processed by: cddbd v1.5.2PL0 Copyright (c) Steve Scherf et al.
# Submitted via: ExactAudioCopy v1.0b2
#
DISCID=7207d009
DTITLE=Goose Creek Symphony - Head For The Hills
DYEAR=2007
DGENRE=Country
TTITLE0=Goin' Down The Road
TTITLE1=Number One Gravy Band
TTITLE2=How-Do-Hi
TTITLE3=Pretty Mama - Hey Good Lookin'
TTITLE4=Head For The Hills - Will The Circule Be Unbroken
TTITLE5=Workin' For The Devil
TTITLE6=Without A Reason
TTITLE7=Lazy
TTITLE8=People Like Me - Goin' Down The Road
EXTD=
EXTT0=
EXTT1=
EXTT2=
EXTT3=
EXTT4=
EXTT5=
EXTT6=
EXTT7=
EXTT8=
PLAYORDER=
